#!OML:ASF F:\VICON\USERDATA\INSTALL\rory3\rory3.ASF
:FULLY-SPECIFIED
:DEGREES
2461
root -11.2382 17.7869 14.9623 720.441 -9.35484 4.54396
lowerback 9.79449 0.962268 -1.7642
upperback 1.34383 1.1052 0.412053
thorax -4.13462 0.574954 1.27555
lowerneck -11.3871 -1.14724 -11.8003
upperneck 43.7045 0.158829 3.71912
head 18.4195 -1.44114 3.94065
rclavicle -4.17448e-015 3.4191e-014
rhumerus -38.0707 -10.9929 -79.0646
rradius 39.0013
rwrist 0.388303
rhand -15.4151 8.60436
rfingers 7.12502
rthumb 10.7644 -21.0998
lclavicle -4.17448e-015 3.4191e-014
lhumerus -38.5409 9.01377 80.9144
lradius 37.7538
lwrist -1.1864
lhand -19.012 26.7474
lfingers 7.12502
lthumb 7.29352 56.6017
rfemur -17.6332 -1.69381 16.673
rtibia 48.4255
rfoot -16.7417 -3.34945
rtoes -10.7048
lfemur -10.3507 -3.95 -25.3917
ltibia 21.7004
lfoot -10.1068 -14.446
ltoes -4.30798
2462
root -11.2578 17.7836 14.9679 720.393 -8.7461 4.42298
lowerback 9.77732 0.894075 -1.75828
upperback 1.35612 1.01686 0.433396
thorax -4.10934 0.531112 1.30646
lowerneck -11.4125 -1.15476 -11.7583
upperneck 43.675 0.165752 3.68107
head 18.4074 -1.43208 3.91574
rclavicle -3.33958e-014 1.59028e-015
rhumerus -38.0968 -10.8502 -79.3699
rradius 39.417
rwrist 0.213889
rhand -15.1848 8.28198
rfingers 7.12502
rthumb 10.9866 -21.4105
lclavicle -3.33958e-014 1.59028e-015
lhumerus -38.5752 9.01765 80.7911
lradius 37.5818
lwrist -1.22982
lhand -19.2888 26.346
lfingers 7.12502
lthumb 7.02642 56.2094
rfemur -17.3554 -1.08062 16.6676
rtibia 47.7584
rfoot -17.0269 -2.61848
rtoes -11.1112
lfemur -10.4124 -4.24665 -25.2191
ltibia 22.0063
lfoot -10.1866 -14.6408
ltoes -3.68238
2463
root -11.2778 17.7902 14.9747 720.351 -8.12691 4.20574
lowerback 9.78615 0.803283 -1.6294
upperback 1.35118 0.911388 0.463941
thorax -4.11403 0.477354 1.27948
lowerneck -11.4294 -1.17425 -11.7343
upperneck 43.6939 0.165577 3.62556
head 18.4254 -1.43443 3.88637
rclavicle -1.2921e-014 -1.51076e-014
rhumerus -38.1317 -10.7073 -79.7128
rradius 39.8012
rwrist 0.0414625
rhand -14.9833 8.08546
rfingers 7.12502
rthumb 11.1808 -21.5966
lclavicle -1.2921e-014 -1.51076e-014
lhumerus -38.7315 9.11017 80.5728
lradius 37.5783
lwrist -1.38299
lhand -18.6904 26.9978
lfingers 7.12502
lthumb 7.60395 56.8411
rfemur -17.1951 -0.252658 16.7387
rtibia 47.0447
rfoot -17.0007 -1.89536
rtoes -7.81373
lfemur -10.3778 -4.4482 -24.941
ltibia 22.1074
lfoot -10.228 -14.9371
ltoes -3.49999
2464
root -11.2992 17.794 14.9792 720.335 -7.57345 4.03514
lowerback 9.69519 0.741005 -1.57736
upperback 1.40219 0.837085 0.487536
thorax -4.00728 0.438874 1.28571
lowerneck -11.4881 -1.20679 -11.7965
upperneck 43.6888 0.109778 3.72774
head 18.4448 -1.45139 3.93899
rclavicle -7.35503e-015 1.59028e-014
rhumerus -37.9707 -10.6489 -80.0569
rradius 40.0624
rwrist -0.0147295
rhand -14.9902 8.0324
rfingers 7.12502
rthumb 11.1742 -21.6501
lclavicle -7.35503e-015 1.59028e-014
lhumerus -38.6828 9.25816 80.3747
lradius 37.467
lwrist -1.47891
lhand -17.7527 28.1871
lfingers 7.12502
lthumb 8.50901 57.9957
rfemur -17.011 0.562402 16.8054
rtibia 46.3117
rfoot -17.1014 -1.21621
rtoes -5.5703
lfemur -10.3143 -4.63361 -24.7082
ltibia 22.0648
lfoot -10.2017 -15.2109
ltoes -3.54464
2465
root -11.3225 17.7982 14.9842 720.361 -7.08812 3.96047
lowerback 9.50694 0.701615 -1.6429
upperback 1.47146 0.7816 0.48861
thorax -3.82941 0.410528 1.333
lowerneck -11.6211 -1.25476 -11.8787
upperneck 43.6415 0.0433281 3.83839
head 18.4601 -1.47284 3.99661
rclavicle 9.54166e-015 -3.97569e-015
rhumerus -37.7651 -10.3952 -80.4848
rradius 40.3417
rwrist -0.336999
rhand -15.1743 7.9747
rfingers 7.12502
rthumb 10.9967 -21.7173
lclavicle 9.54166e-015 -3.97569e-015
lhumerus -38.4476 9.37691 80.2153
lradius 37.1342
lwrist -1.53321
lhand -17.4552 28.2387
lfingers 7.12502
lthumb 8.79609 58.0354
rfemur -16.8841 1.32778 16.7908
rtibia 45.5788
rfoot -17.2721 -0.45321
rtoes -4.17051
lfemur -10.3078 -4.77928 -24.5713
ltibia 22.0306
lfoot -10.15 -15.4836
ltoes -3.71592
2466
root -11.3474 17.8016 14.9908 720.341 -6.62679 3.95769
lowerback 9.39334 0.692752 -1.77494
upperback 1.50507 0.757636 0.459644
thorax -3.7317 0.39925 1.38147
lowerneck -11.7606 -1.31092 -11.8882
upperneck 43.6958 -0.0242035 3.8767
head 18.5419 -1.49774 4.01093
rclavicle 4.87022e-015 -1.03368e-014
rhumerus -37.7764 -10.1128 -80.867
rradius 40.7669
rwrist -0.687976
rhand -15.2428 7.88702
rfingers 7.12502
rthumb 10.9306 -21.8085
lclavicle 4.87022e-015 -1.03368e-014
lhumerus -38.3718 9.4004 80.0639
lradius 36.9772
lwrist -1.55462
lhand -17.6484 28.0771
lfingers 7.12502
lthumb 8.60966 57.8815
rfemur -16.7325 2.07353 16.6994
rtibia 44.8456
rfoot -17.3417 0.24195
rtoes -1.69858
lfemur -10.2826 -4.85968 -24.5181
ltibia 22.0654
lfoot -10.2819 -15.7369
ltoes -4.47419
2467
root -11.3701 17.7973 14.9947 720.302 -6.06739 3.93091
lowerback 9.39016 0.654524 -1.86398
upperback 1.46821 0.697196 0.438235
thorax -3.76675 0.371068 1.41682
lowerneck -11.7061 -1.342 -11.9321
upperneck 43.7377 -0.103275 3.98482
head 18.5629 -1.52243 4.05986
rclavicle -9.74045e-015 7.95139e-015
rhumerus -37.8926 -9.87745 -81.1999
rradius 41.1069
rwrist -0.708846
rhand -15.2635 7.7943
rfingers 7.12502
rthumb 10.9106 -21.9022
lclavicle -9.74045e-015 7.95139e-015
lhumerus -38.472 9.50297 79.8748
lradius 36.9304
lwrist -1.58871
lhand -17.8555 28.3983
lfingers 7.12502
lthumb 8.4098 58.2108
rfemur -16.4704 2.54946 16.6827
rtibia 44.1029
rfoot -17.4717 0.366846
rtoes -1.29431
lfemur -10.3069 -4.96139 -24.4423
ltibia 22.1809
lfoot -10.3493 -16.0991
ltoes -4.57364
2468
root -11.3922 17.7925 14.9953 720.268 -5.52793 3.88217
lowerback 9.46083 0.619283 -1.91877
upperback 1.37022 0.642444 0.421314
thorax -3.90626 0.346823 1.43609
lowerneck -11.5018 -1.3461 -11.9952
upperneck 43.6941 -0.171533 4.12138
head 18.4865 -1.53711 4.12134
rclavicle 4.27387e-015 1.51076e-014
rhumerus -38.0537 -9.69353 -81.5163
rradius 41.3455
rwrist -0.678305
rhand -15.3929 7.81528
rfingers 7.12502
rthumb 10.7857 -21.8878
lclavicle 4.27387e-015 1.51076e-014
lhumerus -38.684 9.63847 79.6391
lradius 36.9063
lwrist -1.74168
lhand -17.633 28.9634
lfingers 7.12502
lthumb 8.62455 58.7672
rfemur -16.167 3.0222 16.7155
rtibia 43.3446
rfoot -17.6458 0.229356
rtoes -1.91608
lfemur -10.3944 -5.1498 -24.3354
ltibia 22.4199
lfoot -10.4296 -16.3844
ltoes -4.50577
2469
root -11.4172 17.7887 14.9979 720.238 -5.09245 3.7395
lowerback 9.44106 0.599748 -1.89997
upperback 1.35075 0.619529 0.436191
thorax -3.91457 0.33563 1.44392
lowerneck -11.4598 -1.36406 -11.955
upperneck 43.5953 -0.170022 4.03013
head 18.4138 -1.53393 4.06497
rclavicle -1.00386e-014 -5.56597e-015
rhumerus -38.0124 -9.52296 -81.8397
rradius 41.4985
rwrist -0.658265
rhand -15.4317 7.82796
rfingers 7.12502
rthumb 10.7483 -21.8771
lclavicle -1.00386e-014 -5.56597e-015
lhumerus -38.8352 9.71407 79.4589
lradius 36.9779
lwrist -1.67973
lhand -17.4206 29.0832
lfingers 7.12502
lthumb 8.82944 58.8785
rfemur -15.8483 3.57067 16.8657
rtibia 42.6111
rfoot -17.7454 0.125897
rtoes -1.32768
lfemur -10.5024 -5.40629 -24.1101
ltibia 22.7498
lfoot -10.506 -16.4648
ltoes -4.33335
2470
root -11.4424 17.7822 14.9988 720.255 -4.6529 3.64262
lowerback 9.34734 0.588481 -1.92263
upperback 1.35282 0.604551 0.440562
thorax -3.85993 0.328117 1.46373
lowerneck -11.4493 -1.38554 -11.9652
upperneck 43.507 -0.184788 4.01399
head 18.3586 -1.53623 4.05269
rclavicle -7.15625e-015 -7.15625e-015
rhumerus -37.8738 -9.37245 -82.1305
rradius 41.6205
rwrist -0.617388
rhand -15.2595 7.94263
rfingers 7.12502
rthumb 10.9145 -21.7537
lclavicle -7.15625e-015 -7.15625e-015
lhumerus -38.8563 9.7459 79.334
lradius 36.9157
lwrist -1.41681
lhand -17.713 28.7577
lfingers 7.12502
lthumb 8.54731 58.5647
rfemur -15.5914 3.94787 16.9814
rtibia 41.9345
rfoot -17.5735 -0.0615653
rtoes -0.616686
lfemur -10.6705 -5.70072 -23.9181
ltibia 23.0568
lfoot -10.4807 -16.6031
ltoes -3.74851
